<?xml version="1.0" standalone="no"?>
<!DOCTYPE svg PUBLIC "-//W3C//DTD SVG 20010904//EN"
 "http://www.w3.org/TR/2001/REC-SVG-20010904/DTD/svg10.dtd">
<svg version="1.0" xmlns="http://www.w3.org/2000/svg"
 width="310.000000pt" height="310.000000pt" viewBox="0 0 310.000000 310.000000"
 preserveAspectRatio="xMidYMid meet">
<metadata>
Created by potrace 1.11, written by Peter Selinger 2001-2013
</metadata>
<g transform="translate(0.000000,310.000000) scale(0.100000,-0.100000)"
fill="#000000" stroke="none">
<path d="M1044 1559 c-186 -513 -341 -936 -342 -941 -2 -5 53 -7 125 -6 l128
3 90 258 90 257 409 -2 409 -3 91 -257 90 -258 134 0 c73 0 132 4 130 8 -1 5
-156 428 -342 940 l-340 932 -166 0 -166 0 -340 -931z m666 246 c88 -247 160
-450 160 -452 0 -2 -146 -3 -325 -3 -181 0 -325 4 -325 9 0 6 249 710 315 890
3 8 8 12 10 9 3 -3 77 -207 165 -453z"/>
</g>
</svg>
